<?xml version="1.0" encoding="utf-8"?>
<!-- Generator: Adobe Illustrator 21.0.0, SVG Export Plug-In . SVG Version: 6.00 Build 0)  -->
<svg version="1.1" id="图层_1" xmlns="http://www.w3.org/2000/svg" xmlns:xlink="http://www.w3.org/1999/xlink" x="0px" y="0px"
	 viewBox="0 0 400 128" style="enable-background:new 0 0 400 128;" xml:space="preserve">
<style type="text/css">
	.st0{fill:#FFCC00;}
	.st1{fill:#E2A203;}
	.st2{fill:#FF0000;}
	.st3{fill:#FFFFFF;}
	.st4{fill:#D9DADC;}
	.st5{fill:#EDEDED;}
	.st6{fill:#DBDBDB;}
	.st7{fill:#577C0F;}
</style>
<g>
	<path class="st3" d="M152.7,69.5l5.3,1.3c-1.1,4.3-3.1,7.7-6,9.9c-2.9,2.3-6.4,3.4-10.6,3.4c-4.3,0-7.8-0.9-10.5-2.6
		c-2.7-1.8-4.8-4.3-6.2-7.6c-1.4-3.3-2.1-6.9-2.1-10.7c0-4.2,0.8-7.8,2.4-10.9c1.6-3.1,3.9-5.5,6.8-7.1c2.9-1.6,6.2-2.4,9.7-2.4
		c4,0,7.4,1,10.1,3.1c2.7,2,4.6,4.9,5.7,8.6l-5.2,1.2c-0.9-2.9-2.3-5-4-6.4c-1.8-1.3-4-2-6.7-2c-3.1,0-5.6,0.7-7.7,2.2
		c-2.1,1.5-3.5,3.4-4.3,5.9s-1.3,5-1.3,7.7c0,3.4,0.5,6.4,1.5,8.9c1,2.5,2.5,4.4,4.6,5.7s4.4,1.9,6.8,1.9c3,0,5.5-0.9,7.5-2.6
		C150.6,75.4,152,72.9,152.7,69.5z"/>
	<path class="st3" d="M163.8,83.6v-40h4.9v40H163.8z"/>
	<path class="st3" d="M176.3,49.2v-5.6h4.9v5.6H176.3z M176.3,83.6v-29h4.9v29H176.3z"/>
	<path class="st3" d="M207.6,73l4.8,0.6c-0.5,3.3-1.9,5.9-4.1,7.8s-4.8,2.8-8,2.8c-4,0-7.1-1.3-9.6-3.9s-3.6-6.3-3.6-11.1
		c0-3.1,0.5-5.9,1.6-8.2c1-2.3,2.6-4.1,4.7-5.3c2.1-1.2,4.4-1.8,6.9-1.8c3.1,0,5.7,0.8,7.7,2.4s3.3,3.8,3.8,6.8l-4.8,0.7
		c-0.5-1.9-1.3-3.4-2.4-4.4c-1.2-1-2.6-1.5-4.2-1.5c-2.5,0-4.5,0.9-6,2.7s-2.3,4.6-2.3,8.4c0,3.9,0.7,6.7,2.2,8.5
		c1.5,1.8,3.4,2.6,5.8,2.6c1.9,0,3.5-0.6,4.8-1.8C206.4,77.2,207.2,75.4,207.6,73z"/>
	<path class="st3" d="M216.6,83.6v-40h4.9v22.8l11.6-11.8h6.4l-11.1,10.7l12.2,18.2h-6.1L225,68.8l-3.5,3.3v11.5H216.6z"/>
	<path class="st3" d="M245.3,83.6v-40h5.3V60h20.8V43.6h5.3v40h-5.3V64.7h-20.8v18.8H245.3z"/>
	<path class="st3" d="M283.1,69.1c0-5.4,1.5-9.3,4.5-11.9c2.5-2.1,5.5-3.2,9.1-3.2c4,0,7.2,1.3,9.8,3.9c2.5,2.6,3.8,6.2,3.8,10.8
		c0,3.7-0.6,6.7-1.7,8.8c-1.1,2.1-2.7,3.8-4.9,5c-2.1,1.2-4.5,1.8-7,1.8c-4.1,0-7.3-1.3-9.8-3.9C284.3,77.7,283.1,74,283.1,69.1z
		 M288.1,69.1c0,3.7,0.8,6.5,2.4,8.3c1.6,1.8,3.7,2.8,6.1,2.8c2.4,0,4.5-0.9,6.1-2.8c1.6-1.9,2.4-4.7,2.4-8.5c0-3.6-0.8-6.3-2.4-8.1
		c-1.6-1.8-3.7-2.8-6.1-2.8c-2.5,0-4.5,0.9-6.1,2.8C288.9,62.6,288.1,65.4,288.1,69.1z"/>
	<path class="st3" d="M334.9,83.6v-4.3c-2.3,3.3-5.3,4.9-9.2,4.9c-1.7,0-3.3-0.3-4.8-1c-1.5-0.7-2.6-1.5-3.3-2.5
		c-0.7-1-1.2-2.2-1.5-3.6c-0.2-1-0.3-2.5-0.3-4.6V54.6h4.9v16.1c0,2.6,0.1,4.3,0.3,5.2c0.3,1.3,1,2.3,2,3c1,0.7,2.2,1.1,3.7,1.1
		c1.5,0,2.9-0.4,4.1-1.1c1.3-0.8,2.2-1.8,2.7-3.1c0.5-1.3,0.8-3.2,0.8-5.7V54.6h4.9v29H334.9z"/>
	<path class="st3" d="M345,74.9l4.9-0.8c0.3,1.9,1,3.4,2.3,4.5s3,1.6,5.2,1.6c2.3,0,3.9-0.5,5-1.4s1.6-2,1.6-3.2
		c0-1.1-0.5-2-1.4-2.6c-0.7-0.4-2.3-1-5-1.7c-3.6-0.9-6.1-1.7-7.5-2.4c-1.4-0.7-2.4-1.6-3.2-2.8c-0.7-1.2-1.1-2.5-1.1-3.9
		c0-1.3,0.3-2.5,0.9-3.6c0.6-1.1,1.4-2,2.4-2.7c0.8-0.6,1.8-1,3.1-1.4c1.3-0.4,2.7-0.6,4.2-0.6c2.3,0,4.3,0.3,6,1
		c1.7,0.7,3,1.5,3.8,2.7c0.8,1.1,1.4,2.6,1.7,4.5l-4.8,0.7c-0.2-1.5-0.8-2.7-1.9-3.5c-1-0.8-2.5-1.3-4.4-1.3c-2.3,0-3.9,0.4-4.8,1.1
		c-1,0.7-1.4,1.6-1.4,2.6c0,0.6,0.2,1.2,0.6,1.7c0.4,0.5,1,1,1.9,1.3c0.5,0.2,1.9,0.6,4.3,1.3c3.5,0.9,5.9,1.7,7.3,2.3
		c1.4,0.6,2.4,1.4,3.2,2.6c0.8,1.1,1.2,2.5,1.2,4.2c0,1.6-0.5,3.2-1.4,4.6c-1,1.4-2.3,2.6-4.1,3.4c-1.8,0.8-3.8,1.2-6.1,1.2
		c-3.8,0-6.6-0.8-8.6-2.3S345.6,78,345,74.9z"/>
	<path class="st3" d="M394.8,74.2l5.1,0.6c-0.8,3-2.3,5.3-4.4,6.9c-2.2,1.6-4.9,2.5-8.3,2.5c-4.2,0-7.6-1.3-10.1-3.9
		c-2.5-2.6-3.7-6.3-3.7-11c0-4.9,1.3-8.7,3.8-11.3c2.5-2.7,5.8-4,9.8-4c3.9,0,7,1.3,9.5,4c2.5,2.6,3.7,6.3,3.7,11.1
		c0,0.3,0,0.7,0,1.3h-21.6c0.2,3.2,1.1,5.6,2.7,7.3c1.6,1.7,3.6,2.5,6.1,2.5c1.8,0,3.3-0.5,4.6-1.4C393,77.8,394,76.3,394.8,74.2z
		 M378.6,66.3h16.2c-0.2-2.4-0.8-4.3-1.9-5.5c-1.6-1.9-3.6-2.8-6.1-2.8c-2.3,0-4.1,0.8-5.7,2.3C379.7,61.8,378.8,63.8,378.6,66.3z"
		/>
</g>
<rect y="14.1" class="st2" width="11.6" height="98.9"/>
<rect x="48.9" y="14.1" class="st0" width="11.6" height="98.9"/>
<rect x="24.4" y="14.1" class="st0" width="11.6" height="98.9"/>
<rect x="96.6" y="43.8" class="st0" width="11.6" height="39.6"/>
<rect x="73.3" y="14.1" class="st0" width="11.6" height="98.9"/>
</svg>
